#!OML:ASF F:\VICON\USERDATA\INSTALL\rory3\rory3.ASF
:FULLY-SPECIFIED
:DEGREES
1518
root 0.101276 16.2156 -0.88723 5.5833 -25.4667 2.14725
lowerback 15.2235 -4.73274 -0.304979
upperback -1.31978 -6.79484 -4.01358
thorax -10.4637 -3.36585 -2.54093
lowerneck -13.0225 3.26034 -5.35187
upperneck 15.7201 5.81196 -1.82564
head 6.86705 2.28305 0.836625
rclavicle -4.37326e-015 7.95139e-015
rhumerus -12.363 -10.1307 9.22025
rradius 30.2588
rwrist 23.9306
rhand -14.4692 11.1317
rfingers 7.12502
rthumb 11.6767 -18.5229
lclavicle -4.37326e-015 7.95139e-015
lhumerus 11.8221 27.5234 58.0292
lradius 19.0043
lwrist -12.5469
lhand -20.4283 11.718
lfingers 7.12502
lthumb 5.92636 41.6151
rfemur -19.8887 21.8213 11.8109
rtibia 21.3439
rfoot -6.97368 -1.56031
rtoes -4.25153
lfemur 2.29233 14.3607 -18.3675
ltibia -1.59028e-015
lfoot -4.9139 7.97627
ltoes 0.374574
1519
root 0.078429 16.2158 -0.883777 5.60348 -24.9789 1.99929
lowerback 15.0839 -4.64743 -0.280532
upperback -1.39338 -6.69626 -4.17941
thorax -10.4851 -3.32869 -2.76679
lowerneck -12.91 3.34097 -5.45283
upperneck 15.4734 5.90521 -1.71756
head 6.75927 2.34268 0.889738
rclavicle -1.41137e-014 2.70347e-014
rhumerus -12.1555 -9.58711 9.42585
rradius 30.3062
rwrist 23.9497
rhand -14.4545 11.1253
rfingers 7.12502
rthumb 11.6908 -18.5285
lclavicle -1.41137e-014 2.70347e-014
lhumerus 11.0888 28.3324 57.2456
lradius 19.1363
lwrist -12.5454
lhand -20.6358 11.7455
lfingers 7.12502
lthumb 5.72594 41.6482
rfemur -19.6124 21.6812 12.0813
rtibia 21.2458
rfoot -7.06264 -1.76501
rtoes -3.30562
lfemur 2.30615 13.8656 -18.1246
ltibia 7.95139e-015
lfoot -4.92381 8.09182
ltoes 0.134902
1520
root 0.0557931 16.2166 -0.87885 5.58336 -24.5141 1.88394
lowerback 14.9918 -4.53213 -0.324413
upperback -1.45719 -6.56821 -4.32454
thorax -10.5096 -3.27231 -2.93643
lowerneck -12.8917 3.41736 -5.54976
upperneck 15.2972 6.01561 -1.68973
head 6.69347 2.39987 0.920927
rclavicle -9.68081e-014 -5.40694e-014
rhumerus -11.8854 -9.29918 9.64999
rradius 30.2494
rwrist 24.1962
rhand -14.3992 11.1406
rfingers 7.12502
rthumb 11.7442 -18.5102
lclavicle -9.68081e-014 -5.40694e-014
lhumerus 10.0876 28.3593 56.0599
lradius 19.479
lwrist -11.8656
lhand -20.5394 11.8028
lfingers 7.12502
lthumb 5.81908 41.7029
rfemur -19.2963 21.491 12.3554
rtibia 21.1417
rfoot -7.13703 -1.98004
rtoes -3.37694
lfemur 2.36357 13.389 -17.9099
ltibia -9.54166e-015
lfoot -4.94877 8.17135
ltoes -0.407256
1521
root 0.0339773 16.2174 -0.873368 5.50959 -24.0466 1.81912
lowerback 14.963 -4.45112 -0.430959
upperback -1.5401 -6.50217 -4.48542
thorax -10.5907 -3.242 -3.06825
lowerneck -12.8414 3.52591 -5.56479
upperneck 15.1067 6.15608 -1.69625
head 6.62033 2.47413 0.929676
rclavicle -9.93923e-016 2.06736e-014
rhumerus -11.4891 -8.88434 9.76848
rradius 30.1606
rwrist 24.2546
rhand -14.3678 11.0497
rfingers 7.12502
rthumb 11.7745 -18.5993
lclavicle -9.93923e-016 2.06736e-014
lhumerus 9.03197 28.5935 54.7427
lradius 19.7652
lwrist -11.4443
lhand -20.4658 11.8649
lfingers 7.12502
lthumb 5.89007 41.763
rfemur -18.9402 21.2993 12.5836
rtibia 21.0611
rfoot -7.22082 -2.17079
rtoes -3.11712
lfemur 2.45762 12.9037 -17.7305
ltibia -1.43125e-014
lfoot -4.98905 8.22344
ltoes -0.808214
1522
root 0.0128327 16.217 -0.86898 5.45223 -23.5843 1.76538
lowerback 14.8989 -4.36624 -0.55161
upperback -1.61209 -6.43387 -4.66287
thorax -10.6394 -3.21086 -3.21369
lowerneck -12.8499 3.63552 -5.56526
upperneck 14.9523 6.28592 -1.61126
head 6.56594 2.55049 0.965948
rclavicle 4.53229e-014 7.95139e-015
rhumerus -11.1305 -8.53563 9.84352
rradius 30.0748
rwrist 24.3091
rhand -14.3998 11.1233
rfingers 7.12502
rthumb 11.7436 -18.5275
lclavicle 4.53229e-014 7.95139e-015
lhumerus 8.13412 29.0504 53.5604
lradius 19.9327
lwrist -11.249
lhand -20.4503 11.8311
lfingers 7.12502
lthumb 5.90504 41.7288
rfemur -18.6549 21.1645 12.789
rtibia 20.9925
rfoot -7.26403 -2.46621
rtoes -3.20107
lfemur 2.515 12.4232 -17.5732
ltibia 7.95139e-015
lfoot -4.96867 8.34151
ltoes -0.923962
1523
root -0.00909767 16.2173 -0.866447 5.42199 -23.1906 1.70882
lowerback 14.8313 -4.23188 -0.736207
upperback -1.67337 -6.30666 -4.81156
thorax -10.659 -3.14655 -3.30714
lowerneck -12.9795 3.72145 -5.59865
upperneck 14.8187 6.40241 -1.53889
head 6.53895 2.61542 1.00533
rclavicle -2.98177e-015 1.90833e-014
rhumerus -10.7886 -8.25905 9.95936
rradius 30.0096
rwrist 24.3374
rhand -14.246 11.1803
rfingers 7.12502
rthumb 11.8919 -18.462
lclavicle -2.98177e-015 1.90833e-014
lhumerus 7.32371 29.3878 52.4813
lradius 20.1295
lwrist -10.765
lhand -20.3206 11.7984
lfingers 7.12502
lthumb 6.03027 41.6926
rfemur -18.4352 20.9659 13.0033
rtibia 20.8994
rfoot -7.22767 -2.65658
rtoes -3.56529
lfemur 2.54154 12.0123 -17.4247
ltibia -1.59028e-015
lfoot -4.95342 8.44784
ltoes -1.28821
1524
root -0.0314956 16.2188 -0.86307 5.42748 -22.8353 1.49197
lowerback 14.8024 -4.09134 -0.784834
upperback -1.73615 -6.14303 -4.92002
thorax -10.7101 -3.071 -3.43963
lowerneck -13.1942 3.78083 -5.77797
upperneck 14.7726 6.49198 -1.2858
head 6.54362 2.67114 1.12628
rclavicle 1.98785e-014 2.70347e-014
rhumerus -10.4851 -7.73032 10.0969
rradius 30.0469
rwrist 24.2098
rhand -14.1589 10.9577
rfingers 7.12502
rthumb 11.9759 -18.6797
lclavicle 1.98785e-014 2.70347e-014
lhumerus 6.35369 29.3123 51.2563
lradius 20.468
lwrist -9.81859
lhand -20.2197 11.538
lfingers 7.12502
lthumb 6.12767 41.4294
rfemur -18.1702 20.8622 13.3661
rtibia 20.8119
rfoot -7.22924 -2.84358
rtoes -3.30832
lfemur 2.61016 11.6524 -17.101
ltibia -1.74931e-014
lfoot -4.94782 8.4925
ltoes -1.66283
